<mxfile host="app.diagrams.net" agent="Mozilla/5.0 (Windows NT 10.0; Win64; x64) AppleWebKit/537.36 (KHTML, like Gecko) Chrome/138.0.0.0 Safari/537.36" version="28.0.7">
  <diagram name="Página-1" id="jMxWlsxE0BkgdGSeJS4F">
    <mxGraphModel grid="1" page="1" gridSize="10" guides="1" tooltips="1" connect="1" arrows="1" fold="1" pageScale="1" pageWidth="4000" pageHeight="2000" math="0" shadow="0">
      <root>
        <mxCell id="0" />
        <mxCell id="1" parent="0" />
        <mxCell id="kF1Z_5llqsf-rPhchowP-2" value="SISTEMA" style="shape=umlActor;verticalLabelPosition=bottom;verticalAlign=top;html=1;" vertex="1" parent="1">
          <mxGeometry x="985" y="40" width="30" height="60" as="geometry" />
        </mxCell>
        <mxCell id="kF1Z_5llqsf-rPhchowP-31" value="JUGADOR" style="shape=umlActor;verticalLabelPosition=bottom;verticalAlign=top;html=1;outlineConnect=0;" vertex="1" parent="1">
          <mxGeometry x="2760" y="10" width="30" height="60" as="geometry" />
        </mxCell>
        <mxCell id="x4AFCx879CaDEYxOzO9v-3" value="Finalización" style="shape=umlFrame;whiteSpace=wrap;html=1;pointerEvents=0;width=90;height=30;" vertex="1" parent="1">
          <mxGeometry x="120" y="120" width="520" height="400" as="geometry" />
        </mxCell>
        <mxCell id="x4AFCx879CaDEYxOzO9v-4" value="Gestión De Partida" style="shape=umlFrame;whiteSpace=wrap;html=1;pointerEvents=0;width=100;height=30;" vertex="1" parent="1">
          <mxGeometry x="1260" y="120" width="800" height="380" as="geometry" />
        </mxCell>
        <mxCell id="x4AFCx879CaDEYxOzO9v-5" value="Puntuación Y Ranking" style="shape=umlFrame;whiteSpace=wrap;html=1;pointerEvents=0;width=100;height=30;" vertex="1" parent="1">
          <mxGeometry x="790" y="630" width="1640" height="290" as="geometry" />
        </mxCell>
        <mxCell id="x4AFCx879CaDEYxOzO9v-7" value="Detectar Condiciones de Victoria" style="ellipse;whiteSpace=wrap;html=1;" vertex="1" parent="1">
          <mxGeometry x="470" y="180" width="110" height="60" as="geometry" />
        </mxCell>
        <mxCell id="x4AFCx879CaDEYxOzO9v-8" value="" style="endArrow=none;html=1;rounded=0;endFill=0;entryX=0.771;entryY=0.004;entryDx=0;entryDy=0;entryPerimeter=0;fillColor=#1ba1e2;strokeColor=#006EAF;" edge="1" parent="1" target="x4AFCx879CaDEYxOzO9v-3">
          <mxGeometry width="50" height="50" relative="1" as="geometry">
            <mxPoint x="960" y="80" as="sourcePoint" />
            <mxPoint x="400" y="122" as="targetPoint" />
            <Array as="points">
              <mxPoint x="521" y="80" />
            </Array>
          </mxGeometry>
        </mxCell>
        <mxCell id="x4AFCx879CaDEYxOzO9v-9" value="Declarar Ganador" style="ellipse;whiteSpace=wrap;html=1;" vertex="1" parent="1">
          <mxGeometry x="350" y="300" width="110" height="60" as="geometry" />
        </mxCell>
        <mxCell id="x4AFCx879CaDEYxOzO9v-12" value="Mostrar Ranking Final" style="ellipse;whiteSpace=wrap;html=1;" vertex="1" parent="1">
          <mxGeometry x="250" y="420" width="110" height="60" as="geometry" />
        </mxCell>
        <mxCell id="x4AFCx879CaDEYxOzO9v-13" value="Include" style="endArrow=classic;endSize=12;dashed=1;html=1;rounded=0;exitX=0.5;exitY=1;exitDx=0;exitDy=0;entryX=1;entryY=0.5;entryDx=0;entryDy=0;endFill=1;" edge="1" parent="1" source="x4AFCx879CaDEYxOzO9v-7" target="x4AFCx879CaDEYxOzO9v-9">
          <mxGeometry width="160" relative="1" as="geometry">
            <mxPoint x="380" y="270" as="sourcePoint" />
            <mxPoint x="540" y="270" as="targetPoint" />
          </mxGeometry>
        </mxCell>
        <mxCell id="x4AFCx879CaDEYxOzO9v-14" value="Include" style="endArrow=classic;endSize=12;dashed=1;html=1;rounded=0;exitX=0.5;exitY=1;exitDx=0;exitDy=0;entryX=1;entryY=0;entryDx=0;entryDy=0;endFill=1;" edge="1" parent="1" source="x4AFCx879CaDEYxOzO9v-9" target="x4AFCx879CaDEYxOzO9v-12">
          <mxGeometry width="160" relative="1" as="geometry">
            <mxPoint x="515" y="370" as="sourcePoint" />
            <mxPoint x="450" y="460" as="targetPoint" />
          </mxGeometry>
        </mxCell>
        <mxCell id="x4AFCx879CaDEYxOzO9v-15" value="" style="endArrow=classic;html=1;rounded=0;entryX=0.5;entryY=0;entryDx=0;entryDy=0;fillColor=#1ba1e2;strokeColor=#006EAF;" edge="1" parent="1" target="x4AFCx879CaDEYxOzO9v-7">
          <mxGeometry width="50" height="50" relative="1" as="geometry">
            <mxPoint x="521" y="120" as="sourcePoint" />
            <mxPoint x="490" y="200" as="targetPoint" />
          </mxGeometry>
        </mxCell>
        <mxCell id="x4AFCx879CaDEYxOzO9v-16" value="" style="endArrow=classic;html=1;rounded=0;exitX=0.772;exitY=-0.001;exitDx=0;exitDy=0;exitPerimeter=0;fillColor=#1ba1e2;strokeColor=#006EAF;" edge="1" parent="1" source="x4AFCx879CaDEYxOzO9v-3">
          <mxGeometry width="50" height="50" relative="1" as="geometry">
            <mxPoint x="520" y="140" as="sourcePoint" />
            <mxPoint x="400" y="300" as="targetPoint" />
            <Array as="points">
              <mxPoint x="400" y="270" />
            </Array>
          </mxGeometry>
        </mxCell>
        <mxCell id="x4AFCx879CaDEYxOzO9v-17" value="" style="endArrow=classic;html=1;rounded=0;exitX=0.771;exitY=-0.001;exitDx=0;exitDy=0;exitPerimeter=0;fillColor=#1ba1e2;strokeColor=#006EAF;" edge="1" parent="1" source="x4AFCx879CaDEYxOzO9v-3">
          <mxGeometry width="50" height="50" relative="1" as="geometry">
            <mxPoint x="420" y="240" as="sourcePoint" />
            <mxPoint x="299" y="420" as="targetPoint" />
            <Array as="points">
              <mxPoint x="299" y="360" />
            </Array>
          </mxGeometry>
        </mxCell>
        <mxCell id="x4AFCx879CaDEYxOzO9v-18" value="Gestionar Turnos" style="ellipse;whiteSpace=wrap;html=1;" vertex="1" parent="1">
          <mxGeometry x="1460" y="180" width="110" height="60" as="geometry" />
        </mxCell>
        <mxCell id="x4AFCx879CaDEYxOzO9v-19" value="Iniciar Partida" style="ellipse;whiteSpace=wrap;html=1;" vertex="1" parent="1">
          <mxGeometry x="1860" y="190" width="110" height="60" as="geometry" />
        </mxCell>
        <mxCell id="x4AFCx879CaDEYxOzO9v-20" value="Distribuir Cartas" style="ellipse;whiteSpace=wrap;html=1;" vertex="1" parent="1">
          <mxGeometry x="1670" y="390" width="110" height="60" as="geometry" />
        </mxCell>
        <mxCell id="x4AFCx879CaDEYxOzO9v-21" value="Extends" style="endArrow=block;endSize=16;endFill=0;html=1;rounded=0;exitX=0.5;exitY=1;exitDx=0;exitDy=0;entryX=0;entryY=0.5;entryDx=0;entryDy=0;" edge="1" parent="1" source="x4AFCx879CaDEYxOzO9v-18" target="x4AFCx879CaDEYxOzO9v-26">
          <mxGeometry x="-0.8354" y="3" width="160" relative="1" as="geometry">
            <mxPoint x="1570" y="350" as="sourcePoint" />
            <mxPoint x="1730" y="350" as="targetPoint" />
            <Array as="points">
              <mxPoint x="1530" y="280" />
              <mxPoint x="1540" y="310" />
              <mxPoint x="1540" y="330" />
              <mxPoint x="1550" y="340" />
              <mxPoint x="1560" y="350" />
              <mxPoint x="1600" y="360" />
              <mxPoint x="1640" y="360" />
            </Array>
            <mxPoint as="offset" />
          </mxGeometry>
        </mxCell>
        <mxCell id="x4AFCx879CaDEYxOzO9v-22" value="Mecánicas de Juego" style="shape=umlFrame;whiteSpace=wrap;html=1;pointerEvents=0;width=100;height=30;" vertex="1" parent="1">
          <mxGeometry x="2140" y="120" width="800" height="380" as="geometry" />
        </mxCell>
        <mxCell id="x4AFCx879CaDEYxOzO9v-23" value="Seleccionar Atributo" style="ellipse;whiteSpace=wrap;html=1;" vertex="1" parent="1">
          <mxGeometry x="2480" y="170" width="110" height="60" as="geometry" />
        </mxCell>
        <mxCell id="x4AFCx879CaDEYxOzO9v-25" value="" style="endArrow=none;html=1;rounded=0;entryX=0.794;entryY=0.002;entryDx=0;entryDy=0;entryPerimeter=0;endFill=0;fillColor=#60a917;strokeColor=#2D7600;" edge="1" parent="1" source="kF1Z_5llqsf-rPhchowP-31" target="x4AFCx879CaDEYxOzO9v-22">
          <mxGeometry width="50" height="50" relative="1" as="geometry">
            <mxPoint x="3030" y="78" as="sourcePoint" />
            <mxPoint x="685" y="1289" as="targetPoint" />
          </mxGeometry>
        </mxCell>
        <mxCell id="x4AFCx879CaDEYxOzO9v-24" value="Visualizar Cartas Propias" style="ellipse;whiteSpace=wrap;html=1;" vertex="1" parent="1">
          <mxGeometry x="2730" y="180" width="110" height="60" as="geometry" />
        </mxCell>
        <mxCell id="x4AFCx879CaDEYxOzO9v-26" value="Pasar Turno" style="ellipse;whiteSpace=wrap;html=1;" vertex="1" parent="1">
          <mxGeometry x="2220" y="350" width="110" height="60" as="geometry" />
        </mxCell>
        <mxCell id="x4AFCx879CaDEYxOzO9v-28" value="" style="endArrow=none;html=1;rounded=0;entryX=0.875;entryY=0;entryDx=0;entryDy=0;entryPerimeter=0;fillColor=#60a917;strokeColor=#2D7600;endFill=0;" edge="1" parent="1" source="kF1Z_5llqsf-rPhchowP-31" target="x4AFCx879CaDEYxOzO9v-4">
          <mxGeometry width="50" height="50" relative="1" as="geometry">
            <mxPoint x="3030" y="79" as="sourcePoint" />
            <mxPoint x="690" y="1550" as="targetPoint" />
            <Array as="points">
              <mxPoint x="1960" y="40" />
            </Array>
          </mxGeometry>
        </mxCell>
        <mxCell id="x4AFCx879CaDEYxOzO9v-27" value="Comparar Atributos" style="ellipse;whiteSpace=wrap;html=1;" vertex="1" parent="1">
          <mxGeometry x="2480" y="360" width="110" height="60" as="geometry" />
        </mxCell>
        <mxCell id="x4AFCx879CaDEYxOzO9v-29" value="Include" style="endArrow=classic;endSize=12;dashed=1;html=1;rounded=0;exitX=0.5;exitY=1;exitDx=0;exitDy=0;entryX=1;entryY=0;entryDx=0;entryDy=0;endFill=1;" edge="1" parent="1" source="x4AFCx879CaDEYxOzO9v-19" target="x4AFCx879CaDEYxOzO9v-20">
          <mxGeometry x="-0.5663" y="-3" width="160" relative="1" as="geometry">
            <mxPoint x="1835" y="270" as="sourcePoint" />
            <mxPoint x="1770" y="360" as="targetPoint" />
            <mxPoint as="offset" />
          </mxGeometry>
        </mxCell>
        <mxCell id="x4AFCx879CaDEYxOzO9v-30" value="" style="endArrow=none;html=1;rounded=0;endFill=0;exitX=0.225;exitY=0.001;exitDx=0;exitDy=0;exitPerimeter=0;fillColor=#1ba1e2;strokeColor=#006EAF;" edge="1" parent="1" source="x4AFCx879CaDEYxOzO9v-4">
          <mxGeometry width="50" height="50" relative="1" as="geometry">
            <mxPoint x="1539" y="80" as="sourcePoint" />
            <mxPoint x="1020" y="80" as="targetPoint" />
            <Array as="points">
              <mxPoint x="1440" y="80" />
            </Array>
          </mxGeometry>
        </mxCell>
        <mxCell id="x4AFCx879CaDEYxOzO9v-31" value="" style="endArrow=none;html=1;rounded=0;endFill=0;exitX=0.225;exitY=-0.002;exitDx=0;exitDy=0;exitPerimeter=0;fillColor=#1ba1e2;strokeColor=#006EAF;" edge="1" parent="1" source="x4AFCx879CaDEYxOzO9v-22">
          <mxGeometry width="50" height="50" relative="1" as="geometry">
            <mxPoint x="1860" y="120" as="sourcePoint" />
            <mxPoint x="1440" y="80" as="targetPoint" />
            <Array as="points">
              <mxPoint x="2320" y="80" />
              <mxPoint x="1860" y="80" />
            </Array>
          </mxGeometry>
        </mxCell>
        <mxCell id="x4AFCx879CaDEYxOzO9v-32" value="" style="endArrow=classic;html=1;rounded=0;entryX=0;entryY=0.5;entryDx=0;entryDy=0;fillColor=#1ba1e2;strokeColor=#006EAF;" edge="1" parent="1" target="x4AFCx879CaDEYxOzO9v-18">
          <mxGeometry width="50" height="50" relative="1" as="geometry">
            <mxPoint x="1440" y="120" as="sourcePoint" />
            <mxPoint x="1450" y="340" as="targetPoint" />
            <Array as="points">
              <mxPoint x="1440" y="210" />
            </Array>
          </mxGeometry>
        </mxCell>
        <mxCell id="x4AFCx879CaDEYxOzO9v-33" value="" style="endArrow=classic;html=1;rounded=0;entryX=0;entryY=0.5;entryDx=0;entryDy=0;fillColor=#1ba1e2;strokeColor=#006EAF;" edge="1" parent="1" target="x4AFCx879CaDEYxOzO9v-20">
          <mxGeometry width="50" height="50" relative="1" as="geometry">
            <mxPoint x="1440" y="120" as="sourcePoint" />
            <mxPoint x="1380" y="280" as="targetPoint" />
            <Array as="points">
              <mxPoint x="1400" y="160" />
              <mxPoint x="1400" y="410" />
            </Array>
          </mxGeometry>
        </mxCell>
        <mxCell id="x4AFCx879CaDEYxOzO9v-36" value="" style="endArrow=classic;html=1;rounded=0;entryX=1;entryY=0;entryDx=0;entryDy=0;fillColor=#60a917;strokeColor=#2D7600;" edge="1" parent="1" target="x4AFCx879CaDEYxOzO9v-19">
          <mxGeometry width="50" height="50" relative="1" as="geometry">
            <mxPoint x="1960" y="120" as="sourcePoint" />
            <mxPoint x="1630" y="250" as="targetPoint" />
            <Array as="points">
              <mxPoint x="1960" y="160" />
            </Array>
          </mxGeometry>
        </mxCell>
        <mxCell id="x4AFCx879CaDEYxOzO9v-38" value="" style="endArrow=classic;html=1;rounded=0;entryX=0.5;entryY=0;entryDx=0;entryDy=0;fillColor=#60a917;strokeColor=#2D7600;exitX=0.794;exitY=0.001;exitDx=0;exitDy=0;exitPerimeter=0;" edge="1" parent="1" source="x4AFCx879CaDEYxOzO9v-22" target="x4AFCx879CaDEYxOzO9v-24">
          <mxGeometry width="50" height="50" relative="1" as="geometry">
            <mxPoint x="2236" y="210" as="sourcePoint" />
            <mxPoint x="2230" y="289" as="targetPoint" />
            <Array as="points" />
          </mxGeometry>
        </mxCell>
        <mxCell id="x4AFCx879CaDEYxOzO9v-39" value="" style="endArrow=classic;html=1;rounded=0;entryX=1;entryY=0;entryDx=0;entryDy=0;fillColor=#60a917;strokeColor=#2D7600;exitX=0.794;exitY=0.005;exitDx=0;exitDy=0;exitPerimeter=0;" edge="1" parent="1" source="x4AFCx879CaDEYxOzO9v-22" target="x4AFCx879CaDEYxOzO9v-23">
          <mxGeometry width="50" height="50" relative="1" as="geometry">
            <mxPoint x="2790" y="140" as="sourcePoint" />
            <mxPoint x="2800" y="200" as="targetPoint" />
            <Array as="points" />
          </mxGeometry>
        </mxCell>
        <mxCell id="x4AFCx879CaDEYxOzO9v-40" value="" style="endArrow=classic;html=1;rounded=0;entryX=0.536;entryY=-0.025;entryDx=0;entryDy=0;fillColor=#60a917;strokeColor=#2D7600;entryPerimeter=0;exitX=0.794;exitY=0.004;exitDx=0;exitDy=0;exitPerimeter=0;" edge="1" parent="1" source="x4AFCx879CaDEYxOzO9v-22" target="x4AFCx879CaDEYxOzO9v-26">
          <mxGeometry width="50" height="50" relative="1" as="geometry">
            <mxPoint x="2750" y="110" as="sourcePoint" />
            <mxPoint x="2720" y="206" as="targetPoint" />
            <Array as="points">
              <mxPoint x="2280" y="160" />
            </Array>
          </mxGeometry>
        </mxCell>
        <mxCell id="x4AFCx879CaDEYxOzO9v-42" value="Include" style="endArrow=classic;endSize=12;dashed=1;html=1;rounded=0;exitX=0.5;exitY=1;exitDx=0;exitDy=0;entryX=0.5;entryY=0;entryDx=0;entryDy=0;endFill=1;" edge="1" parent="1" source="x4AFCx879CaDEYxOzO9v-23" target="x4AFCx879CaDEYxOzO9v-27">
          <mxGeometry x="-0.5385" width="160" relative="1" as="geometry">
            <mxPoint x="2701" y="280" as="sourcePoint" />
            <mxPoint x="2550" y="429" as="targetPoint" />
            <mxPoint as="offset" />
          </mxGeometry>
        </mxCell>
        <mxCell id="x4AFCx879CaDEYxOzO9v-44" value="" style="endArrow=classic;html=1;rounded=0;entryX=0;entryY=0;entryDx=0;entryDy=0;fillColor=#1ba1e2;strokeColor=#006EAF;exitX=0.225;exitY=-0.002;exitDx=0;exitDy=0;exitPerimeter=0;" edge="1" parent="1" source="x4AFCx879CaDEYxOzO9v-22" target="x4AFCx879CaDEYxOzO9v-27">
          <mxGeometry width="50" height="50" relative="1" as="geometry">
            <mxPoint x="1770" y="210" as="sourcePoint" />
            <mxPoint x="1790" y="300" as="targetPoint" />
            <Array as="points">
              <mxPoint x="2360" y="260" />
            </Array>
          </mxGeometry>
        </mxCell>
        <mxCell id="x4AFCx879CaDEYxOzO9v-45" value="Configuración Inicial" style="shape=umlFrame;whiteSpace=wrap;html=1;pointerEvents=0;width=90;height=30;" vertex="1" parent="1">
          <mxGeometry x="3040" y="120" width="520" height="400" as="geometry" />
        </mxCell>
        <mxCell id="x4AFCx879CaDEYxOzO9v-46" value="Seleccionar Avatar" style="ellipse;whiteSpace=wrap;html=1;" vertex="1" parent="1">
          <mxGeometry x="3390" y="350" width="110" height="60" as="geometry" />
        </mxCell>
        <mxCell id="x4AFCx879CaDEYxOzO9v-47" value="Registrar Jugadores" style="ellipse;whiteSpace=wrap;html=1;" vertex="1" parent="1">
          <mxGeometry x="3380" y="170" width="110" height="60" as="geometry" />
        </mxCell>
        <mxCell id="x4AFCx879CaDEYxOzO9v-48" value="Personalizar Nombre" style="ellipse;whiteSpace=wrap;html=1;" vertex="1" parent="1">
          <mxGeometry x="3080" y="340" width="110" height="60" as="geometry" />
        </mxCell>
        <mxCell id="x4AFCx879CaDEYxOzO9v-49" value="" style="endArrow=none;html=1;rounded=0;entryX=0.538;entryY=0;entryDx=0;entryDy=0;entryPerimeter=0;endFill=0;fillColor=#60a917;strokeColor=#2D7600;" edge="1" parent="1" target="x4AFCx879CaDEYxOzO9v-45">
          <mxGeometry width="50" height="50" relative="1" as="geometry">
            <mxPoint x="2800" y="40" as="sourcePoint" />
            <mxPoint x="2980" y="161" as="targetPoint" />
            <Array as="points">
              <mxPoint x="3318" y="40" />
            </Array>
          </mxGeometry>
        </mxCell>
        <mxCell id="x4AFCx879CaDEYxOzO9v-50" value="" style="endArrow=classic;html=1;rounded=0;entryX=0.5;entryY=0;entryDx=0;entryDy=0;fillColor=#60a917;strokeColor=#2D7600;" edge="1" parent="1" target="x4AFCx879CaDEYxOzO9v-47">
          <mxGeometry width="50" height="50" relative="1" as="geometry">
            <mxPoint x="3320" y="120" as="sourcePoint" />
            <mxPoint x="3280" y="240" as="targetPoint" />
            <Array as="points">
              <mxPoint x="3435" y="130" />
            </Array>
          </mxGeometry>
        </mxCell>
        <mxCell id="x4AFCx879CaDEYxOzO9v-51" value="" style="endArrow=classic;html=1;rounded=0;fillColor=#60a917;strokeColor=#2D7600;exitX=0.539;exitY=-0.001;exitDx=0;exitDy=0;exitPerimeter=0;" edge="1" parent="1" source="x4AFCx879CaDEYxOzO9v-45" target="x4AFCx879CaDEYxOzO9v-48">
          <mxGeometry width="50" height="50" relative="1" as="geometry">
            <mxPoint x="3180" y="175" as="sourcePoint" />
            <mxPoint x="3295" y="225" as="targetPoint" />
            <Array as="points" />
          </mxGeometry>
        </mxCell>
        <mxCell id="x4AFCx879CaDEYxOzO9v-52" value="" style="endArrow=classic;html=1;rounded=0;entryX=0;entryY=0;entryDx=0;entryDy=0;fillColor=#60a917;strokeColor=#2D7600;exitX=0.539;exitY=-0.001;exitDx=0;exitDy=0;exitPerimeter=0;" edge="1" parent="1" source="x4AFCx879CaDEYxOzO9v-45" target="x4AFCx879CaDEYxOzO9v-46">
          <mxGeometry width="50" height="50" relative="1" as="geometry">
            <mxPoint x="3180" y="270" as="sourcePoint" />
            <mxPoint x="3295" y="320" as="targetPoint" />
            <Array as="points">
              <mxPoint x="3320" y="320" />
            </Array>
          </mxGeometry>
        </mxCell>
        <mxCell id="x4AFCx879CaDEYxOzO9v-53" value="Include" style="endArrow=classic;endSize=12;dashed=1;html=1;rounded=0;exitX=0.5;exitY=1;exitDx=0;exitDy=0;entryX=0.5;entryY=0;entryDx=0;entryDy=0;endFill=1;" edge="1" parent="1" source="x4AFCx879CaDEYxOzO9v-47" target="x4AFCx879CaDEYxOzO9v-46">
          <mxGeometry x="-0.5385" width="160" relative="1" as="geometry">
            <mxPoint x="3410" y="320" as="sourcePoint" />
            <mxPoint x="3410" y="450" as="targetPoint" />
            <mxPoint as="offset" />
          </mxGeometry>
        </mxCell>
        <mxCell id="x4AFCx879CaDEYxOzO9v-54" value="Include" style="endArrow=classic;endSize=12;dashed=1;html=1;rounded=0;exitX=0.244;exitY=0.977;exitDx=0;exitDy=0;entryX=1;entryY=0;entryDx=0;entryDy=0;endFill=1;exitPerimeter=0;" edge="1" parent="1" source="x4AFCx879CaDEYxOzO9v-47" target="x4AFCx879CaDEYxOzO9v-48">
          <mxGeometry x="-0.5385" width="160" relative="1" as="geometry">
            <mxPoint x="3390" y="260" as="sourcePoint" />
            <mxPoint x="3390" y="390" as="targetPoint" />
            <mxPoint as="offset" />
          </mxGeometry>
        </mxCell>
        <mxCell id="x4AFCx879CaDEYxOzO9v-55" value="Actualizar Puntuación" style="ellipse;whiteSpace=wrap;html=1;" vertex="1" parent="1">
          <mxGeometry x="910" y="680" width="110" height="60" as="geometry" />
        </mxCell>
        <mxCell id="x4AFCx879CaDEYxOzO9v-56" value="" style="endArrow=none;html=1;rounded=0;endFill=0;fillColor=#1ba1e2;strokeColor=#006EAF;" edge="1" parent="1">
          <mxGeometry width="50" height="50" relative="1" as="geometry">
            <mxPoint x="998" y="630" as="sourcePoint" />
            <mxPoint x="1000" y="120" as="targetPoint" />
            <Array as="points" />
          </mxGeometry>
        </mxCell>
        <mxCell id="x4AFCx879CaDEYxOzO9v-57" value="" style="endArrow=classic;html=1;rounded=0;entryX=0.5;entryY=0;entryDx=0;entryDy=0;fillColor=#1ba1e2;strokeColor=#006EAF;exitX=0.127;exitY=-0.002;exitDx=0;exitDy=0;exitPerimeter=0;" edge="1" parent="1" source="x4AFCx879CaDEYxOzO9v-5" target="x4AFCx879CaDEYxOzO9v-55">
          <mxGeometry width="50" height="50" relative="1" as="geometry">
            <mxPoint x="1140" y="730" as="sourcePoint" />
            <mxPoint x="1160" y="820" as="targetPoint" />
            <Array as="points" />
          </mxGeometry>
        </mxCell>
        <mxCell id="x4AFCx879CaDEYxOzO9v-58" value="Contar Rondas Ganadas" style="ellipse;whiteSpace=wrap;html=1;" vertex="1" parent="1">
          <mxGeometry x="1540" y="710" width="110" height="60" as="geometry" />
        </mxCell>
        <mxCell id="x4AFCx879CaDEYxOzO9v-59" value="" style="endArrow=classic;html=1;rounded=0;entryX=0.5;entryY=0;entryDx=0;entryDy=0;fillColor=#1ba1e2;strokeColor=#006EAF;exitX=0.127;exitY=-0.001;exitDx=0;exitDy=0;exitPerimeter=0;" edge="1" parent="1" source="x4AFCx879CaDEYxOzO9v-5" target="x4AFCx879CaDEYxOzO9v-58">
          <mxGeometry width="50" height="50" relative="1" as="geometry">
            <mxPoint x="1053" y="700" as="sourcePoint" />
            <mxPoint x="1020" y="751" as="targetPoint" />
            <Array as="points" />
          </mxGeometry>
        </mxCell>
        <mxCell id="x4AFCx879CaDEYxOzO9v-60" value="Include" style="endArrow=classic;endSize=12;dashed=1;html=1;rounded=0;exitX=0;exitY=1;exitDx=0;exitDy=0;entryX=1;entryY=0.5;entryDx=0;entryDy=0;endFill=1;" edge="1" parent="1" source="x4AFCx879CaDEYxOzO9v-27" target="x4AFCx879CaDEYxOzO9v-55">
          <mxGeometry x="-0.5663" y="-3" width="160" relative="1" as="geometry">
            <mxPoint x="2021" y="430" as="sourcePoint" />
            <mxPoint x="1870" y="579" as="targetPoint" />
            <mxPoint as="offset" />
            <Array as="points">
              <mxPoint x="2240" y="570" />
            </Array>
          </mxGeometry>
        </mxCell>
        <mxCell id="x4AFCx879CaDEYxOzO9v-62" value="Mostrar Ranking" style="ellipse;whiteSpace=wrap;html=1;" vertex="1" parent="1">
          <mxGeometry x="1310" y="820" width="110" height="60" as="geometry" />
        </mxCell>
        <mxCell id="x4AFCx879CaDEYxOzO9v-63" value="Include" style="endArrow=classic;endSize=12;dashed=1;html=1;rounded=0;exitX=0.5;exitY=1;exitDx=0;exitDy=0;entryX=1;entryY=0;entryDx=0;entryDy=0;endFill=1;" edge="1" parent="1" source="x4AFCx879CaDEYxOzO9v-27" target="x4AFCx879CaDEYxOzO9v-58">
          <mxGeometry x="-0.5663" y="-3" width="160" relative="1" as="geometry">
            <mxPoint x="3526" y="580" as="sourcePoint" />
            <mxPoint x="2050" y="879" as="targetPoint" />
            <mxPoint as="offset" />
            <Array as="points">
              <mxPoint x="2290" y="660" />
            </Array>
          </mxGeometry>
        </mxCell>
        <mxCell id="x4AFCx879CaDEYxOzO9v-64" value="Include" style="endArrow=classic;endSize=12;dashed=1;html=1;rounded=0;exitX=0.5;exitY=1;exitDx=0;exitDy=0;entryX=1;entryY=0;entryDx=0;entryDy=0;endFill=1;" edge="1" parent="1" source="x4AFCx879CaDEYxOzO9v-58" target="x4AFCx879CaDEYxOzO9v-62">
          <mxGeometry x="-0.5663" y="-3" width="160" relative="1" as="geometry">
            <mxPoint x="2701" y="710" as="sourcePoint" />
            <mxPoint x="1800" y="1009" as="targetPoint" />
            <mxPoint as="offset" />
            <Array as="points">
              <mxPoint x="1530" y="810" />
            </Array>
          </mxGeometry>
        </mxCell>
        <mxCell id="x4AFCx879CaDEYxOzO9v-65" value="" style="endArrow=none;html=1;rounded=0;fillColor=#60a917;strokeColor=#2D7600;endFill=0;" edge="1" parent="1">
          <mxGeometry width="50" height="50" relative="1" as="geometry">
            <mxPoint x="1960" y="40" as="sourcePoint" />
            <mxPoint x="1157" y="630" as="targetPoint" />
            <Array as="points">
              <mxPoint x="1160" y="40" />
            </Array>
          </mxGeometry>
        </mxCell>
        <mxCell id="x4AFCx879CaDEYxOzO9v-66" value="" style="endArrow=classic;html=1;rounded=0;entryX=0;entryY=0;entryDx=0;entryDy=0;fillColor=#60a917;strokeColor=#2D7600;exitX=0.224;exitY=-0.004;exitDx=0;exitDy=0;exitPerimeter=0;" edge="1" parent="1" source="x4AFCx879CaDEYxOzO9v-5" target="x4AFCx879CaDEYxOzO9v-62">
          <mxGeometry width="50" height="50" relative="1" as="geometry">
            <mxPoint x="1193" y="690" as="sourcePoint" />
            <mxPoint x="1160" y="741" as="targetPoint" />
            <Array as="points">
              <mxPoint x="1170" y="740" />
              <mxPoint x="1200" y="790" />
              <mxPoint x="1250" y="820" />
            </Array>
          </mxGeometry>
        </mxCell>
      </root>
    </mxGraphModel>
  </diagram>
</mxfile>
